# xmcd
#
# Track frame offsets:
# 183
# 26560
# 33533
# 39880
# 56315
# 79270
# 97093
# 120610
# 159653
# 176385
# 196823
# 210493
# 220868
# 240083
# 253003
# 276395
#
# Disc length: 3998 seconds
#
#
# Revision: 0
# Processed by: cddbd v1.5.1PL0 Copyright (c) Steve Scherf et al.
# Submitted via: FreeRIP 2.941 
#
DISCID=d20f9c10
DTITLE=Fesaci - Fesaci  25
DYEAR=1993
DGENRE=Country
TTITLE0=Buraky
TTITLE1=Zuzana
TTITLE2=Danny Boy
TTITLE3=Ja sam
TTITLE4=Jmeno me
TTITLE5=Jaro
TTITLE6=Pani se ma
TTITLE7=Sundej s hodin zavazi
TTITLE8=Pul a pul
TTITLE9=Country
TTITLE10=Duhove znameni
TTITLE11=Nashville Skyline Rag
TTITLE12=Always On My Mind
TTITLE13=Jolene
TTITLE14=Hvezda Countryon
TTITLE15=Komedianti nestarnou
EXTD=Zaznam koncertu k 25 vyroci skupiny Fesaku
EXTT0=
EXTT1=
EXTT2=
EXTT3=
EXTT4=
EXTT5=
EXTT6=
EXTT7=
EXTT8=
EXTT9=
EXTT10=
EXTT11=
EXTT12=
EXTT13=
EXTT14=
EXTT15=
PLAYORDER=
